<svg width="147" height="20" viewBox="0 0 147 20" fill="none" xmlns="http://www.w3.org/2000/svg">
<g clip-path="url(#clip0_5342_164074)">
<path d="M12.2422 5.08457L19.5885 3.18359V16.837L12.2422 14.915V5.08457Z" fill="#C40D23"/>
<path d="M0 0L12.2428 5.08477V14.9152L0 20V0Z" fill="#F80B28"/>
</g>
<line x1="32.3464" y1="1.66699" x2="32.3464" y2="18.3337" stroke="black" stroke-width="0.833333"/>
<g clip-path="url(#clip1_5342_164074)">
<path d="M51.512 7.953C51.4773 8.04541 51.408 8.12627 51.3041 8.19557C51.2001 8.25333 51.0499 8.27643 50.8536 8.26488C50.5763 8.65762 50.2298 9.09079 49.814 9.56439C49.3981 10.038 48.9592 10.4712 48.4971 10.8639H48.2372C48.3643 10.5174 48.4798 10.1362 48.5838 9.72033C48.6877 9.29293 48.7859 8.86554 48.8783 8.43815C48.9707 7.9992 49.0458 7.60069 49.1036 7.2426L51.512 7.953ZM45.1704 7.34656C45.8173 7.54293 46.314 7.77396 46.6605 8.03963C47.0186 8.30531 47.2554 8.58254 47.3709 8.87132C47.498 9.14854 47.5326 9.40845 47.4749 9.65102C47.4287 9.88204 47.3189 10.0726 47.1457 10.2228C46.9724 10.3614 46.7645 10.4249 46.5219 10.4134C46.2909 10.4018 46.0541 10.2921 45.8115 10.0842C45.7884 9.62214 45.6902 9.15432 45.5169 8.68072C45.3552 8.19557 45.182 7.77973 44.9971 7.4332L45.1704 7.34656ZM48.913 17.7599C48.9014 17.7946 48.757 17.8754 48.4798 18.0025C48.2141 18.1296 47.8387 18.1931 47.3536 18.1931H47.0244V10.7773H48.913V17.7599ZM49.4328 2.13122C49.4212 2.24673 49.375 2.34491 49.2942 2.42577C49.2249 2.49508 49.0862 2.54706 48.8783 2.58171V6.94805H47.0244V1.9233L49.4328 2.13122ZM50.5763 12.1461C50.5763 12.1461 50.6341 12.198 50.7496 12.302C50.8767 12.3944 51.0326 12.5157 51.2174 12.6659C51.4138 12.816 51.6159 12.9778 51.8239 13.151C52.0433 13.3243 52.2339 13.486 52.3957 13.6362C52.3494 13.821 52.1935 13.9134 51.9278 13.9134H44.1308L43.9922 13.4282H49.5887L50.5763 12.1461ZM50.3164 9.63369C50.3164 9.63369 50.4031 9.703 50.5763 9.84161C50.7496 9.96868 50.9518 10.1304 51.1828 10.3268C51.4138 10.5231 51.6217 10.708 51.8065 10.8812C51.7719 11.066 51.6217 11.1584 51.356 11.1584H44.5986L44.46 10.6733H49.5021L50.3164 9.63369ZM50.6457 5.63122C50.6457 5.63122 50.7381 5.7063 50.9229 5.85647C51.1077 6.00663 51.3214 6.18567 51.564 6.39359C51.8181 6.60151 52.0433 6.79788 52.2397 6.9827C52.2051 7.16752 52.0549 7.25993 51.7892 7.25993H44.2174L44.0788 6.77478H49.762L50.6457 5.63122ZM50.0046 3.15349C50.0046 3.15349 50.0912 3.22858 50.2645 3.37874C50.4493 3.51736 50.663 3.69062 50.9056 3.89854C51.1481 4.09491 51.3676 4.28551 51.564 4.47033C51.5178 4.65515 51.3618 4.74755 51.0961 4.74755H44.8412L44.7026 4.24508H49.1729L50.0046 3.15349ZM57.1085 3.10151L58.0268 2.23518L59.6902 3.56934C59.6325 3.62709 59.5516 3.68485 59.4476 3.7426C59.3437 3.78881 59.2051 3.82924 59.0318 3.86389C59.0202 4.66092 58.9914 5.30779 58.9452 5.80449C58.899 6.30118 58.8239 6.69392 58.7199 6.9827C58.6159 7.25993 58.4658 7.46785 58.2694 7.60647C58.0499 7.76818 57.7958 7.87792 57.507 7.93567C57.2298 7.98188 56.8948 8.00498 56.5021 8.00498C56.5021 7.78551 56.4848 7.60069 56.4501 7.45052C56.4155 7.28881 56.3461 7.15019 56.2422 7.03468C56.1382 6.93072 55.9996 6.83831 55.8263 6.75746C55.6531 6.6766 55.4394 6.60729 55.1853 6.54953V6.32429C55.4047 6.33584 55.6589 6.35317 55.9476 6.37627C56.2364 6.38782 56.4501 6.39359 56.5887 6.39359C56.7851 6.39359 56.9179 6.35317 56.9872 6.27231C57.0912 6.1799 57.1605 5.88534 57.1952 5.38864C57.2414 4.88039 57.2702 4.11802 57.2818 3.10151H57.1085ZM52.2917 2.26983L54.3536 3.10151H54.111V17.708C54.111 17.7773 53.9782 17.887 53.7125 18.0372C53.4468 18.1873 53.0772 18.2624 52.6036 18.2624H52.2917V3.10151V2.26983ZM54.8041 9.20052C55.0813 10.3787 55.5087 11.4299 56.0862 12.354C56.6638 13.2665 57.3395 14.0578 58.1135 14.7278C58.8874 15.3977 59.7018 15.958 60.5565 16.4084L60.5046 16.599C60.1234 16.6337 59.7884 16.7781 59.4996 17.0322C59.2224 17.2863 59.0029 17.6329 58.8412 18.0718C58.0673 17.4249 57.3973 16.6857 56.8313 15.854C56.2653 15.0223 55.7917 14.0693 55.4105 12.9951C55.0293 11.9208 54.7405 10.6964 54.5442 9.32181L54.8041 9.20052ZM57.2818 9.06191L58.2174 8.07429L59.9674 9.52973C59.8635 9.6799 59.644 9.77231 59.309 9.80696C59.1589 10.8581 58.9047 11.9035 58.5466 12.9431C58.1886 13.9712 57.6745 14.9357 57.0046 15.8367C56.3346 16.7261 55.4336 17.5 54.3016 18.1584L54.1457 17.9505C54.9196 17.2113 55.5318 16.3622 55.9823 15.4035C56.4328 14.4332 56.7678 13.4051 56.9872 12.3193C57.2183 11.2335 57.3742 10.1477 57.4551 9.06191H57.2818ZM58.512 9.06191V9.54706H53.4179V9.06191H58.512ZM58.3041 3.10151V3.58666H53.4006V3.10151H58.3041ZM65.0615 9.99755C65.4542 10.2979 65.9047 10.5231 66.413 10.6733C66.9212 10.8235 67.5277 10.9216 68.2323 10.9679C68.9485 11.0025 69.7917 11.0198 70.762 11.0198C71.1547 11.0198 71.6514 11.0198 72.2521 11.0198C72.8643 11.0198 73.5112 11.0198 74.1927 11.0198C74.8742 11.0198 75.5211 11.0198 76.1333 11.0198C76.7455 11.0083 77.248 10.9967 77.6407 10.9852V11.2104C77.3635 11.2797 77.1498 11.4299 76.9996 11.6609C76.861 11.8919 76.7917 12.1634 76.7917 12.4753C76.4683 12.4753 76.0409 12.4753 75.5095 12.4753C74.9782 12.4753 74.4064 12.4753 73.7942 12.4753C73.1935 12.4753 72.6217 12.4753 72.0788 12.4753C71.5475 12.4753 71.1027 12.4753 70.7447 12.4753C69.7282 12.4753 68.856 12.406 68.1283 12.2674C67.4122 12.1287 66.7942 11.8919 66.2744 11.557C65.7546 11.2104 65.2867 10.7253 64.8709 10.1015L65.0615 9.99755ZM65.7026 5.90845C65.564 6.09326 65.3791 6.33006 65.1481 6.61884C64.9171 6.89607 64.6861 7.1733 64.4551 7.45052C64.224 7.72775 64.0161 7.95878 63.8313 8.14359H63.9699L63.3288 8.6634L61.856 7.5025C61.9947 7.42165 62.1737 7.34079 62.3932 7.25993C62.6242 7.17907 62.8263 7.13287 62.9996 7.12132L62.2546 7.58914C62.4394 7.39277 62.6531 7.14442 62.8957 6.84409C63.1382 6.54376 63.375 6.24343 63.606 5.9431C63.8486 5.63122 64.0392 5.37132 64.1778 5.1634L65.7026 5.90845ZM64.1778 5.11142L64.9922 4.27973L66.6382 5.76983C66.5458 5.87379 66.3841 5.94887 66.1531 5.99508C65.9336 6.02973 65.6853 6.04706 65.408 6.04706C65.1424 6.04706 64.8709 6.02973 64.5937 5.99508L64.4031 5.11142H64.1778ZM64.7843 7.65845L65.6853 6.75746L67.262 8.07429C67.1696 8.2129 66.9559 8.29376 66.6209 8.31686C66.2628 9.39112 65.6737 10.3614 64.8536 11.2278C64.0334 12.0825 62.9476 12.7641 61.5961 13.2723L61.4575 13.0297C62.474 12.4175 63.2595 11.6378 63.814 10.6906C64.38 9.73188 64.7612 8.72115 64.9575 7.65845H64.7843ZM65.0961 5.11142V5.59656H61.7001L61.5442 5.11142H65.0961ZM65.4427 7.65845V8.14359H63.1729L63.3635 7.65845H65.4427ZM62.3239 2.23518C63.0169 2.10812 63.5945 2.07924 64.0565 2.14854C64.5301 2.2063 64.8998 2.32759 65.1655 2.51241C65.4311 2.68567 65.6102 2.88204 65.7026 3.10151C65.8065 3.30944 65.8296 3.51158 65.7719 3.70795C65.7141 3.90432 65.5928 4.06026 65.408 4.17577C65.2348 4.27973 65.0095 4.30283 64.7323 4.24508C64.559 4.02561 64.328 3.80036 64.0392 3.56934C63.7504 3.33831 63.4443 3.11884 63.1209 2.91092C62.7975 2.703 62.4914 2.54128 62.2026 2.42577L62.3239 2.23518ZM64.4551 14.5545C65.2752 14.5198 65.9336 14.5776 66.4303 14.7278C66.927 14.8779 67.2909 15.0801 67.5219 15.3342C67.7645 15.5768 67.8973 15.8309 67.9204 16.0966C67.9435 16.3622 67.88 16.5933 67.7298 16.7896C67.5912 16.9976 67.389 17.1304 67.1234 17.1881C66.8692 17.2575 66.5805 17.2113 66.257 17.0495C66.1531 16.7608 65.9914 16.472 65.7719 16.1832C65.564 15.8829 65.3329 15.6056 65.0788 15.3515C64.8247 15.0858 64.5763 14.8664 64.3338 14.6931L64.4551 14.5545ZM74.2273 12.8911C74.2158 13.0066 74.1638 13.099 74.0714 13.1683C73.979 13.2377 73.8461 13.2896 73.6729 13.3243V15.9753C73.6729 16.4142 73.6093 16.7896 73.4823 17.1015C73.3668 17.4134 73.1184 17.656 72.7372 17.8292C72.356 18.0141 71.7669 18.1411 70.9699 18.2104C70.9468 17.9332 70.9006 17.6848 70.8313 17.4654C70.7735 17.2575 70.6696 17.09 70.5194 16.9629C70.3692 16.8243 70.1671 16.703 69.913 16.599C69.6704 16.4951 69.3008 16.4084 68.8041 16.3391V16.0966C68.8041 16.0966 68.9138 16.1023 69.1333 16.1139C69.3643 16.1254 69.63 16.1428 69.9303 16.1659C70.2306 16.189 70.5136 16.2063 70.7793 16.2179C71.045 16.2294 71.2298 16.2352 71.3338 16.2352C71.4724 16.2352 71.5648 16.2121 71.611 16.1659C71.6688 16.1197 71.6976 16.0446 71.6976 15.9406V12.6832L74.2273 12.8911ZM75.9427 12.5966C75.9427 12.5966 76.0409 12.6716 76.2372 12.8218C76.4336 12.972 76.6646 13.1568 76.9303 13.3763C77.196 13.5957 77.4386 13.8037 77.658 14C77.6118 14.1848 77.4559 14.2773 77.1902 14.2773H61.8041L61.6655 13.7921H74.9897L75.9427 12.5966ZM73.2051 3.9332C72.9856 4.21043 72.7084 4.52808 72.3734 4.88617C72.0384 5.2327 71.7265 5.51571 71.4377 5.73518H70.658C70.7042 5.45795 70.7447 5.14607 70.7793 4.79953C70.814 4.44145 70.8313 4.15267 70.8313 3.9332H73.2051ZM69.4452 10.2055C69.4452 10.2632 69.3643 10.3383 69.2026 10.4307C69.0524 10.5231 68.856 10.604 68.6135 10.6733C68.3709 10.7426 68.1168 10.7773 67.8511 10.7773H67.5912V5.45795V4.67825L69.5491 5.45795H74.9551V5.96043H69.4452V10.2055ZM75.3882 2.37379C75.3536 2.4893 75.2785 2.58171 75.163 2.65102C75.059 2.70877 74.9146 2.73765 74.7298 2.73765C74.441 2.96868 74.0829 3.2228 73.6556 3.50003C73.2397 3.76571 72.8354 3.99673 72.4427 4.1931H72.2001C72.3041 3.86967 72.4023 3.4827 72.4947 3.03221C72.5986 2.57016 72.6853 2.16587 72.7546 1.81934L75.3882 2.37379ZM75.1803 9.54706V10.0495H68.7521V9.54706H75.1803ZM75.1803 8.16092V8.6634H68.7521V8.16092H75.1803ZM75.1803 6.80944V7.31191H68.7521V6.80944H75.1803ZM73.8635 5.45795L74.7298 4.53963L76.5318 5.89112C76.474 5.94887 76.3932 6.00663 76.2892 6.06439C76.1968 6.12214 76.0755 6.16835 75.9254 6.203V10.1362C75.9254 10.1824 75.8387 10.2517 75.6655 10.3441C75.4922 10.4365 75.2843 10.5174 75.0417 10.5867C74.7991 10.656 74.5681 10.6906 74.3486 10.6906H74.0194V5.45795H73.8635ZM68.5095 1.94062C69.1795 1.91752 69.7051 1.97528 70.0862 2.11389C70.4674 2.2525 70.7331 2.43155 70.8833 2.65102C71.045 2.85894 71.1143 3.07264 71.0912 3.29211C71.0681 3.51158 70.9757 3.70217 70.814 3.86389C70.6638 4.02561 70.4732 4.12379 70.2422 4.15845C70.0112 4.18155 69.757 4.10647 69.4798 3.9332C69.4221 3.58666 69.2834 3.24013 69.064 2.89359C68.856 2.54706 68.625 2.26983 68.3709 2.06191L68.5095 1.94062ZM75.7001 2.72032C75.7001 2.72032 75.8041 2.79541 76.012 2.94557C76.2199 3.09574 76.4625 3.27478 76.7397 3.4827C77.0169 3.69062 77.2653 3.89854 77.4848 4.10647C77.4386 4.29128 77.2768 4.38369 76.9996 4.38369H66.4996L66.361 3.88122H74.7471L75.7001 2.72032ZM84.658 1.95795L87.257 2.1832C87.2455 2.29871 87.1993 2.39689 87.1184 2.47775C87.0376 2.54706 86.8932 2.59904 86.6853 2.63369V8.2129H84.658V1.95795ZM80.4303 4.74755H87.5689L88.6259 3.39607C88.6259 3.39607 88.6894 3.44805 88.8164 3.55201C88.9551 3.64442 89.1226 3.77148 89.3189 3.9332C89.5268 4.09491 89.7405 4.26818 89.96 4.453C90.1795 4.62627 90.3816 4.79376 90.5664 4.95548C90.5202 5.14029 90.3585 5.2327 90.0813 5.2327H80.5689L80.4303 4.74755ZM78.8536 7.93567H91.814L92.9056 6.53221C92.9056 6.53221 92.9691 6.58996 93.0961 6.70548C93.2348 6.80944 93.408 6.94227 93.616 7.10399C93.8239 7.26571 94.0433 7.43897 94.2744 7.62379C94.5054 7.80861 94.7133 7.98765 94.8981 8.16092C94.8519 8.33419 94.6902 8.42082 94.413 8.42082H79.0095L78.8536 7.93567ZM91.9526 2.40844L94.1877 4.00251C94.1184 4.08336 94.026 4.14112 93.9105 4.17577C93.795 4.19887 93.6333 4.17577 93.4254 4.10647C92.6976 4.9959 91.8255 5.89112 90.809 6.79211C89.7925 7.6931 88.6547 8.55944 87.3957 9.39112C86.1366 10.2228 84.7735 10.991 83.3065 11.6956C81.8511 12.3886 80.3032 12.972 78.663 13.4456L78.5417 13.1857C79.9971 12.5504 81.3948 11.8111 82.7348 10.9679C84.0747 10.1246 85.328 9.22363 86.4947 8.26488C87.6613 7.29458 88.7067 6.31274 89.6308 5.31934C90.5549 4.31439 91.3288 3.34409 91.9526 2.40844ZM82.6655 10.5347V9.68567L84.7966 10.5347H91.2595V11.0372H84.6754V17.5693C84.6754 17.6386 84.5887 17.7253 84.4155 17.8292C84.2537 17.9332 84.04 18.0256 83.7744 18.1065C83.5202 18.1873 83.2488 18.2278 82.96 18.2278H82.6655V10.5347ZM90.0986 10.5347H89.9254L90.8783 9.49508L92.8362 11.0025C92.79 11.0718 92.7092 11.1411 92.5937 11.2104C92.4782 11.2797 92.328 11.3317 92.1432 11.3664V17.6213C92.1316 17.656 92.0277 17.7137 91.8313 17.7946C91.6465 17.887 91.4212 17.9679 91.1556 18.0372C90.9014 18.1065 90.6589 18.1411 90.4278 18.1411H90.0986V10.5347ZM83.8263 13.3763H91.3808V13.8787H83.8263V13.3763ZM83.8263 16.4084H91.3808V16.8936H83.8263V16.4084ZM98.9872 3.58666V4.08914H96.1457L95.9897 3.58666H98.9872ZM104.151 2.56438C104.151 2.56438 104.226 2.63369 104.376 2.77231C104.538 2.89937 104.722 3.06108 104.93 3.25746C105.138 3.45382 105.323 3.63864 105.485 3.81191C105.45 3.99673 105.3 4.08914 105.034 4.08914H101.586L101.448 3.58666H103.423L104.151 2.56438ZM103.354 2.07924C103.342 2.1832 103.296 2.26983 103.215 2.33914C103.146 2.40845 103.019 2.45465 102.834 2.47775V4.88617C102.834 4.92082 102.759 4.9728 102.609 5.04211C102.458 5.09986 102.274 5.15762 102.054 5.21538C101.835 5.26158 101.615 5.28468 101.396 5.28468H101.066V1.87132L103.354 2.07924ZM100.495 2.09656C100.483 2.18897 100.437 2.26983 100.356 2.33914C100.287 2.40845 100.16 2.45465 99.9749 2.47775V4.95548C99.9749 4.99013 99.8998 5.04211 99.7496 5.11142C99.611 5.16917 99.432 5.22115 99.2125 5.26736C98.993 5.31356 98.7735 5.33666 98.5541 5.33666H98.2422V1.88864L100.495 2.09656ZM100.183 8.75003C100.76 8.84244 101.194 8.9695 101.482 9.13122C101.783 9.29293 101.979 9.47198 102.071 9.66835C102.164 9.86472 102.175 10.0553 102.106 10.2401C102.037 10.4134 101.921 10.552 101.76 10.656C101.598 10.7599 101.401 10.8061 101.17 10.7946C100.951 10.7715 100.737 10.6675 100.529 10.4827C100.529 10.1939 100.472 9.89937 100.356 9.59904C100.252 9.28716 100.142 9.03303 100.027 8.83666L100.183 8.75003ZM102.955 5.96043L103.579 5.30201L104.948 6.32429C104.913 6.37049 104.849 6.4167 104.757 6.4629C104.665 6.50911 104.555 6.54376 104.428 6.56686V8.62874C104.428 8.6634 104.364 8.71538 104.237 8.78468C104.11 8.84244 103.96 8.89442 103.787 8.94062C103.613 8.98683 103.452 9.00993 103.302 9.00993H103.076V5.96043H102.955ZM100.859 5.31934L102.418 5.96043H102.193V8.71538C102.193 8.75003 102.094 8.83089 101.898 8.95795C101.702 9.07346 101.43 9.13122 101.084 9.13122H100.859V5.96043V5.31934ZM103.7 8.02231V8.52478H101.482V8.02231H103.7ZM103.7 5.96043V6.44557H101.482V5.96043H103.7ZM98.762 5.96043L99.3857 5.30201L100.737 6.30696C100.691 6.35317 100.622 6.40515 100.529 6.4629C100.437 6.50911 100.333 6.54376 100.217 6.56686V8.69805C100.217 8.7327 100.154 8.78468 100.027 8.85399C99.8998 8.91175 99.7496 8.96373 99.5763 9.00993C99.4146 9.05614 99.2587 9.07924 99.1085 9.07924H98.8833V5.96043H98.762ZM96.6655 5.33666L98.2075 5.96043H97.9823V8.88864C97.9823 8.9233 97.8841 8.99838 97.6877 9.11389C97.4914 9.2294 97.2257 9.28716 96.8907 9.28716H96.6655V5.96043V5.33666ZM99.9229 9.58171C99.8882 9.67412 99.8131 9.75498 99.6976 9.82429C99.5937 9.89359 99.4435 9.92247 99.2471 9.91092C98.8544 10.7542 98.3981 11.5339 97.8783 12.25C97.3701 12.9662 96.8156 13.5669 96.215 14.052L95.9724 13.8961C96.3305 13.2723 96.677 12.5157 97.012 11.6263C97.347 10.7368 97.6127 9.82429 97.809 8.88864L99.9229 9.58171ZM102.071 10.7946V16.6337H100.408V10.7946H102.071ZM99.0392 17.6386C99.0392 17.708 98.9179 17.8119 98.6754 17.9505C98.4328 18.0891 98.092 18.1584 97.6531 18.1584H97.3412V11.8515L98.4155 10.3441L99.2645 10.656H99.0392V17.6386ZM103.579 15.2995C103.579 15.2995 103.665 15.3688 103.839 15.5075C104.024 15.6461 104.237 15.8136 104.48 16.0099C104.722 16.1947 104.936 16.3796 105.121 16.5644C105.075 16.7492 104.925 16.8416 104.67 16.8416H97.9303V16.3565H102.73L103.579 15.2995ZM103.146 13.4629C103.146 13.4629 103.227 13.5264 103.388 13.6535C103.55 13.7806 103.735 13.9307 103.943 14.104C104.162 14.2773 104.364 14.4505 104.549 14.6238C104.514 14.8086 104.364 14.901 104.099 14.901H97.8957V14.3985H102.383L103.146 13.4629ZM103.146 11.5743C103.146 11.5743 103.227 11.6378 103.388 11.7649C103.55 11.8804 103.735 12.0306 103.943 12.2154C104.162 12.3886 104.359 12.5561 104.532 12.7179C104.509 12.9027 104.364 12.9951 104.099 12.9951H97.8957V12.5099H102.383L103.146 11.5743ZM103.44 9.66835C103.44 9.66835 103.521 9.73765 103.683 9.87627C103.856 10.0033 104.058 10.1593 104.289 10.3441C104.532 10.5289 104.745 10.708 104.93 10.8812C104.884 11.066 104.734 11.1584 104.48 11.1584H97.9476V10.656H102.643L103.44 9.66835ZM99.507 8.02231V8.52478H97.3065V8.02231H99.507ZM99.507 5.96043V6.44557H97.3065V5.96043H99.507ZM107.824 11.6782C107.789 12.7987 107.633 13.7806 107.356 14.6238C107.079 15.4555 106.623 16.1659 105.987 16.755C105.363 17.3441 104.486 17.835 103.354 18.2278L103.25 17.9852C104.081 17.4654 104.694 16.8994 105.086 16.2872C105.479 15.6749 105.733 14.9934 105.849 14.2426C105.976 13.4802 106.039 12.6254 106.039 11.6782H107.824ZM110.076 11.6956C110.076 11.788 110.076 11.8862 110.076 11.9901C110.076 12.0941 110.076 12.1807 110.076 12.25V15.9579C110.076 16.0504 110.088 16.1139 110.111 16.1485C110.146 16.1832 110.209 16.2005 110.302 16.2005H110.613C110.683 16.2005 110.741 16.2005 110.787 16.2005C110.833 16.2005 110.873 16.2005 110.908 16.2005C110.966 16.189 111.012 16.1774 111.047 16.1659C111.093 16.1428 111.133 16.0966 111.168 16.0273C111.237 15.9117 111.324 15.6807 111.428 15.3342C111.532 14.9761 111.642 14.5949 111.757 14.1906H111.948L112 16.0966C112.208 16.189 112.34 16.2929 112.398 16.4084C112.456 16.5124 112.485 16.6452 112.485 16.807C112.485 17.1073 112.329 17.3383 112.017 17.5C111.705 17.6617 111.168 17.7426 110.406 17.7426H109.695C109.291 17.7426 108.991 17.6964 108.794 17.604C108.609 17.5116 108.488 17.3614 108.43 17.1535C108.373 16.9456 108.344 16.6741 108.344 16.3391V11.6956H110.076ZM105.138 2.1832L107.131 2.9629H109.331L110.25 1.88864L111.982 3.27478C111.925 3.34409 111.844 3.40762 111.74 3.46538C111.636 3.52313 111.48 3.56934 111.272 3.60399V12.0594C111.272 12.1056 111.128 12.198 110.839 12.3367C110.561 12.4637 110.192 12.5273 109.73 12.5273H109.418V3.44805H106.923V12.354C106.923 12.4233 106.79 12.5215 106.524 12.6485C106.27 12.7756 105.912 12.8391 105.45 12.8391H105.138V2.9629V2.1832ZM110.44 11.5743V12.0594H105.901V11.5743H110.44ZM110.44 8.78468V9.28716H105.901V8.78468H110.44ZM110.44 6.04706V6.53221H105.901V6.04706H110.44ZM114.217 12.9431C114.333 12.9431 114.42 12.9315 114.477 12.9084C114.535 12.8738 114.61 12.7641 114.703 12.5792C114.772 12.4522 114.835 12.3309 114.893 12.2154C114.951 12.0883 115.032 11.9035 115.136 11.6609C115.24 11.4183 115.39 11.0545 115.586 10.5693C115.794 10.0842 116.066 9.42 116.401 8.57676C116.736 7.73353 117.169 6.6535 117.7 5.33666L117.995 5.40597C117.891 5.81026 117.764 6.27231 117.613 6.79211C117.475 7.30036 117.336 7.82594 117.198 8.36884C117.059 8.90019 116.926 9.41422 116.799 9.91092C116.672 10.3961 116.557 10.8292 116.453 11.2104C116.36 11.5801 116.297 11.8573 116.262 12.0421C116.204 12.3193 116.152 12.5966 116.106 12.8738C116.071 13.1395 116.054 13.3878 116.054 13.6188C116.066 13.9192 116.129 14.2137 116.245 14.5025C116.36 14.7913 116.47 15.1147 116.574 15.4728C116.678 15.8309 116.718 16.2698 116.695 16.7896C116.684 17.2286 116.551 17.5751 116.297 17.8292C116.054 18.0834 115.742 18.2104 115.361 18.2104C115.165 18.2104 114.986 18.1353 114.824 17.9852C114.662 17.8466 114.552 17.6155 114.495 17.2921C114.599 16.6799 114.656 16.1081 114.668 15.5768C114.691 15.0454 114.674 14.6007 114.616 14.2426C114.558 13.873 114.466 13.6419 114.339 13.5495C114.223 13.4571 114.09 13.3936 113.94 13.3589C113.802 13.3243 113.64 13.3012 113.455 13.2896V12.9431C113.455 12.9431 113.501 12.9431 113.594 12.9431C113.698 12.9431 113.813 12.9431 113.94 12.9431C114.067 12.9431 114.16 12.9431 114.217 12.9431ZM114.408 2.09656C115.159 2.22363 115.748 2.41422 116.175 2.66835C116.614 2.91092 116.92 3.1766 117.094 3.46538C117.267 3.7426 117.342 4.00828 117.319 4.26241C117.296 4.51653 117.198 4.73023 117.024 4.9035C116.863 5.06521 116.655 5.15762 116.401 5.18072C116.158 5.19227 115.892 5.09409 115.604 4.88617C115.557 4.57429 115.459 4.25663 115.309 3.9332C115.159 3.60977 114.991 3.29788 114.807 2.99755C114.633 2.69722 114.454 2.43155 114.269 2.20052L114.408 2.09656ZM113.386 6.06439C114.09 6.19145 114.645 6.37049 115.049 6.60151C115.453 6.83254 115.731 7.08666 115.881 7.36389C116.043 7.62957 116.106 7.88947 116.071 8.14359C116.048 8.38617 115.956 8.58831 115.794 8.75003C115.632 8.90019 115.43 8.98105 115.188 8.9926C114.945 9.00416 114.691 8.90597 114.425 8.69805C114.379 8.24755 114.235 7.79706 113.992 7.34656C113.761 6.88452 113.507 6.49755 113.23 6.18567L113.386 6.06439ZM124.267 3.58666L126.381 3.79458C126.369 3.88699 126.329 3.96785 126.26 4.03716C126.202 4.10647 126.086 4.15267 125.913 4.17577V13.9827C125.913 14.0405 125.838 14.1098 125.688 14.1906C125.549 14.2715 125.382 14.3466 125.185 14.4159C124.989 14.4736 124.793 14.5025 124.596 14.5025H124.267V3.58666ZM127.091 2.16587L129.534 2.40844C129.523 2.52396 129.465 2.62792 129.361 2.72032C129.269 2.80118 129.113 2.85894 128.893 2.89359V15.9233C128.893 16.3507 128.841 16.7203 128.737 17.0322C128.633 17.3556 128.408 17.604 128.062 17.7773C127.727 17.9621 127.207 18.0891 126.502 18.1584C126.479 17.8697 126.439 17.6155 126.381 17.3961C126.335 17.1766 126.242 17.0033 126.104 16.8763C125.977 16.7261 125.803 16.6048 125.584 16.5124C125.376 16.4084 125.07 16.3218 124.665 16.2525V15.9926C124.665 15.9926 124.752 15.9984 124.925 16.0099C125.11 16.0215 125.324 16.0388 125.566 16.0619C125.809 16.0735 126.034 16.085 126.242 16.0966C126.462 16.1081 126.618 16.1139 126.71 16.1139C126.86 16.1139 126.958 16.0908 127.005 16.0446C127.062 15.9984 127.091 15.9175 127.091 15.802V2.16587ZM119 6.41092H122.274V6.89607H119V6.41092ZM119 9.52973H122.274V10.0322H119V9.52973ZM118.948 12.7525H122.17V13.255H118.948V12.7525ZM119.017 13.7748L121.2 14.6758C121.154 14.7797 121.073 14.8606 120.958 14.9183C120.854 14.9646 120.709 14.9819 120.524 14.9703C120.051 15.7212 119.496 16.3622 118.861 16.8936C118.237 17.4249 117.579 17.8466 116.886 18.1584L116.695 17.9679C117.146 17.4827 117.579 16.8763 117.995 16.1485C118.422 15.4208 118.763 14.6296 119.017 13.7748ZM121.079 13.9134C121.818 14.1675 122.39 14.4621 122.794 14.7971C123.21 15.132 123.499 15.4728 123.661 15.8193C123.834 16.1543 123.903 16.4662 123.868 16.755C123.845 17.0438 123.747 17.2748 123.574 17.448C123.412 17.6329 123.21 17.7253 122.967 17.7253C122.725 17.7253 122.471 17.6155 122.205 17.3961C122.182 17.0033 122.107 16.6048 121.98 16.2005C121.853 15.7962 121.691 15.4035 121.495 15.0223C121.31 14.6411 121.113 14.3004 120.906 14L121.079 13.9134ZM118.168 3.27478V2.51241L119.918 3.27478H122.118V3.75993H119.849V13.4976C119.849 13.5553 119.779 13.6362 119.641 13.7401C119.514 13.8325 119.346 13.9134 119.138 13.9827C118.93 14.052 118.699 14.0867 118.445 14.0867H118.168V3.27478ZM121.495 3.27478H121.339L122.17 2.37379L123.834 3.6733C123.788 3.7426 123.712 3.80614 123.609 3.86389C123.516 3.9101 123.395 3.95052 123.245 3.98518V13.3589C123.245 13.4051 123.164 13.4687 123.002 13.5495C122.84 13.6304 122.644 13.7055 122.413 13.7748C122.194 13.8441 121.986 13.8787 121.789 13.8787H121.495V3.27478ZM145.094 4.88617C145.094 4.88617 145.157 4.93815 145.284 5.04211C145.411 5.14607 145.567 5.28468 145.752 5.45795C145.948 5.61967 146.151 5.79293 146.359 5.97775C146.578 6.16257 146.774 6.33584 146.948 6.49755C146.913 6.68237 146.757 6.77478 146.48 6.77478H141.715V6.28963H144.054L145.094 4.88617ZM137.92 9.4431L140.069 10.2575H143.604L144.574 9.14854L146.393 10.5693C146.335 10.6502 146.255 10.7195 146.151 10.7773C146.058 10.8235 145.914 10.8697 145.717 10.9159V17.5693C145.717 17.6155 145.567 17.708 145.267 17.8466C144.967 17.9852 144.557 18.0545 144.037 18.0545H143.673V10.7599H139.861V17.7253C139.861 17.7946 139.717 17.8928 139.428 18.0198C139.151 18.1469 138.764 18.2104 138.267 18.2104H137.92V10.2575V9.4431ZM143.413 2.20052C143.39 2.31604 143.332 2.42 143.24 2.51241C143.159 2.59326 143.003 2.65102 142.772 2.68567V10.5H140.797V1.97528L143.413 2.20052ZM144.193 16.2525V16.755H139.185V16.2525H144.193ZM132.653 1.9926C133.415 2.23518 134.01 2.52396 134.438 2.85894C134.865 3.18237 135.154 3.51736 135.304 3.86389C135.454 4.19887 135.5 4.51653 135.443 4.81686C135.396 5.10564 135.275 5.33666 135.079 5.50993C134.882 5.6832 134.64 5.76406 134.351 5.75251C134.074 5.74095 133.791 5.60234 133.502 5.33666C133.479 4.96703 133.415 4.59161 133.311 4.21043C133.208 3.81769 133.08 3.4365 132.93 3.06686C132.792 2.69722 132.642 2.36224 132.48 2.06191L132.653 1.9926ZM137.938 7.79706C137.903 7.91257 137.834 8.00498 137.73 8.07429C137.626 8.14359 137.47 8.17825 137.262 8.17825C137.077 8.81356 136.835 9.54706 136.534 10.3787C136.245 11.1989 135.928 12.0421 135.581 12.9084C135.235 13.7632 134.882 14.566 134.524 15.3169H134.264C134.403 14.5083 134.536 13.6188 134.663 12.6485C134.802 11.6782 134.929 10.7137 135.044 9.75498C135.16 8.78468 135.252 7.9068 135.321 7.12132L137.938 7.79706ZM131.631 7.36389C132.359 8.05696 132.901 8.72693 133.26 9.37379C133.629 10.0207 133.854 10.6155 133.935 11.1584C134.028 11.7014 134.022 12.1692 133.918 12.5619C133.814 12.9547 133.652 13.255 133.433 13.4629C133.225 13.6593 133 13.7459 132.757 13.7228C132.526 13.6881 132.318 13.5091 132.133 13.1857C132.145 12.8391 132.145 12.4348 132.133 11.9728C132.133 11.4992 132.11 11.0025 132.064 10.4827C132.018 9.95135 131.943 9.43155 131.839 8.9233C131.735 8.40349 131.59 7.91835 131.406 7.46785L131.631 7.36389ZM130.609 15.1782C131.013 15.1089 131.585 14.9992 132.324 14.849C133.063 14.6989 133.895 14.5256 134.819 14.3292C135.755 14.1213 136.713 13.9076 137.695 13.6881L137.73 13.8787C137.129 14.2484 136.367 14.6873 135.443 15.1956C134.519 15.7038 133.392 16.2872 132.064 16.9456C131.972 17.1997 131.821 17.3499 131.613 17.3961L130.609 15.1782ZM136.777 4.55696C136.777 4.55696 136.835 4.61472 136.95 4.73023C137.077 4.84574 137.233 4.99013 137.418 5.1634C137.614 5.33666 137.811 5.52726 138.007 5.73518C138.203 5.93155 138.382 6.12214 138.544 6.30696C138.498 6.49178 138.342 6.58419 138.076 6.58419H130.782L130.643 6.08171H135.772L136.777 4.55696Z" fill="black"/>
</g>
<defs>
<clipPath id="clip0_5342_164074">
<rect width="20" height="20" fill="white"/>
</clipPath>
<clipPath id="clip1_5342_164074">
<rect width="103.135" height="16.6667" fill="white" transform="translate(43.8594 1.66699)"/>
</clipPath>
</defs>
</svg>
