<svg width="180" height="24" viewBox="0 0 180 24" fill="none" xmlns="http://www.w3.org/2000/svg">
<g clip-path="url(#clip0_5342_152495)">
<path d="M14.6875 6.10173L23.5031 3.82056V20.2047L14.6875 17.8983V6.10173Z" fill="#C40D23"/>
<path d="M0 0L14.6914 6.10173V17.8983L0 24V0Z" fill="#F80B28"/>
</g>
<line x1="40.6172" y1="2" x2="40.6172" y2="22" stroke="black"/>
<g clip-path="url(#clip1_5342_152495)">
<path d="M65.43 9.54152C65.3884 9.65241 65.3053 9.74944 65.1805 9.83261C65.0558 9.90191 64.8756 9.92964 64.6399 9.91578C64.3072 10.3871 63.8914 10.9069 63.3924 11.4752C62.8934 12.0435 62.3666 12.5633 61.8122 13.0346H61.5003C61.6528 12.6187 61.7914 12.1613 61.9162 11.6623C62.0409 11.1494 62.1587 10.6366 62.2696 10.1237C62.3805 9.59696 62.4706 9.11875 62.5399 8.68904L65.43 9.54152ZM57.8201 8.8138C58.5963 9.04944 59.1924 9.32667 59.6082 9.64548C60.0379 9.96429 60.3221 10.297 60.4607 10.6435C60.6132 10.9762 60.6548 11.2881 60.5855 11.5791C60.53 11.8564 60.3983 12.0851 60.1904 12.2653C59.9825 12.4316 59.733 12.5079 59.4419 12.494C59.1647 12.4801 58.8805 12.3484 58.5894 12.0989C58.5617 11.5445 58.4439 10.9831 58.236 10.4148C58.0419 9.83261 57.834 9.3336 57.6122 8.91776L57.8201 8.8138ZM62.3112 21.3098C62.2973 21.3514 62.1241 21.4485 61.7914 21.6009C61.4726 21.7534 61.0221 21.8296 60.4399 21.8296H60.0449V12.9306H62.3112V21.3098ZM62.935 2.55538C62.9211 2.69399 62.8657 2.81182 62.7686 2.90885C62.6855 2.99201 62.5191 3.05439 62.2696 3.09597V8.33558H60.0449V2.30587L62.935 2.55538ZM64.3072 14.5732C64.3072 14.5732 64.3765 14.6356 64.5152 14.7603C64.6676 14.8712 64.8548 15.0168 65.0765 15.197C65.3122 15.3772 65.5548 15.5712 65.8043 15.7791C66.0676 15.9871 66.2963 16.1811 66.4904 16.3613C66.435 16.5831 66.2478 16.694 65.929 16.694H56.5726L56.4062 16.1118H63.1221L64.3072 14.5732ZM63.9954 11.5584C63.9954 11.5584 64.0993 11.6415 64.3072 11.8079C64.5152 11.9603 64.7577 12.1544 65.035 12.39C65.3122 12.6257 65.5617 12.8475 65.7835 13.0554C65.7419 13.2772 65.5617 13.3881 65.2429 13.3881H57.134L56.9676 12.8059H63.0181L63.9954 11.5584ZM64.3904 6.75538C64.3904 6.75538 64.5013 6.84548 64.7231 7.02568C64.9449 7.20587 65.2013 7.42073 65.4924 7.67023C65.7973 7.91974 66.0676 8.15538 66.3033 8.37716C66.2617 8.59894 66.0815 8.70984 65.7627 8.70984H56.6765L56.5102 8.12766H63.33L64.3904 6.75538ZM63.6211 3.78211C63.6211 3.78211 63.7251 3.87221 63.933 4.05241C64.1548 4.21875 64.4112 4.42667 64.7023 4.67617C64.9934 4.91182 65.2567 5.14053 65.4924 5.36231C65.4369 5.58409 65.2498 5.69498 64.931 5.69498H57.4251L57.2587 5.09201H62.6231L63.6211 3.78211ZM72.1459 3.71974L73.2478 2.68013L75.2439 4.28112C75.1746 4.35043 75.0775 4.41974 74.9528 4.48904C74.828 4.54449 74.6617 4.593 74.4538 4.63459C74.4399 5.59102 74.4053 6.36726 74.3498 6.9633C74.2944 7.55934 74.2043 8.03063 74.0795 8.37716C73.9548 8.70984 73.7746 8.95934 73.5389 9.12568C73.2756 9.31974 72.9706 9.45142 72.6241 9.52073C72.2914 9.57617 71.8894 9.6039 71.4181 9.6039C71.4181 9.34053 71.3973 9.11875 71.3558 8.93855C71.3142 8.74449 71.231 8.57815 71.1062 8.43954C70.9815 8.31479 70.8152 8.20389 70.6072 8.10686C70.3993 8.00984 70.1429 7.92667 69.8379 7.85736V7.58706C70.1013 7.60092 70.4063 7.62172 70.7528 7.64944C71.0993 7.6633 71.3558 7.67023 71.5221 7.67023C71.7577 7.67023 71.9171 7.62172 72.0003 7.52469C72.1251 7.4138 72.2082 7.06033 72.2498 6.46429C72.3053 5.85439 72.3399 4.93954 72.3538 3.71974H72.1459ZM66.3657 2.72172L68.8399 3.71974H68.5488V21.2475C68.5488 21.3306 68.3894 21.4623 68.0706 21.6425C67.7518 21.8227 67.3082 21.9128 66.7399 21.9128H66.3657V3.71974V2.72172ZM69.3805 11.0385C69.7132 12.4524 70.2261 13.7138 70.9191 14.8227C71.6122 15.9178 72.4231 16.8673 73.3518 17.6712C74.2805 18.4752 75.2577 19.1475 76.2835 19.6881L76.2211 19.9168C75.7637 19.9583 75.3617 20.1316 75.0152 20.4366C74.6825 20.7415 74.4191 21.1574 74.2251 21.6841C73.2963 20.9079 72.4924 20.0207 71.8132 19.0227C71.134 18.0247 70.5657 16.8811 70.1082 15.592C69.6508 14.3029 69.3043 12.8336 69.0686 11.1841L69.3805 11.0385ZM72.3538 10.8722L73.4765 9.68706L75.5765 11.4336C75.4518 11.6138 75.1884 11.7247 74.7864 11.7663C74.6063 13.0277 74.3013 14.2821 73.8716 15.5296C73.4419 16.7633 72.8251 17.9207 72.0211 19.0019C71.2171 20.0692 70.136 20.998 68.7775 21.7881L68.5904 21.5385C69.5191 20.6514 70.2538 19.6326 70.7944 18.4821C71.335 17.3178 71.7369 16.0841 72.0003 14.7811C72.2775 13.4782 72.4647 12.1752 72.5617 10.8722H72.3538ZM73.83 10.8722V11.4544H67.7171V10.8722H73.83ZM73.5805 3.71974V4.30191H67.6963V3.71974H73.5805ZM81.6894 11.995C82.1607 12.3554 82.7013 12.6257 83.3112 12.8059C83.9211 12.9861 84.6488 13.1039 85.4944 13.1593C86.3538 13.2009 87.3657 13.2217 88.53 13.2217C89.0013 13.2217 89.5973 13.2217 90.3181 13.2217C91.0528 13.2217 91.829 13.2217 92.6468 13.2217C93.4647 13.2217 94.2409 13.2217 94.9756 13.2217C95.7102 13.2079 96.3132 13.194 96.7845 13.1801V13.4504C96.4518 13.5336 96.1954 13.7138 96.0152 13.991C95.8488 14.2683 95.7657 14.594 95.7657 14.9683C95.3775 14.9683 94.8647 14.9683 94.227 14.9683C93.5894 14.9683 92.9033 14.9683 92.1686 14.9683C91.4478 14.9683 90.7617 14.9683 90.1102 14.9683C89.4726 14.9683 88.9389 14.9683 88.5092 14.9683C87.2894 14.9683 86.2429 14.8851 85.3696 14.7187C84.5102 14.5524 83.7686 14.2683 83.1449 13.8663C82.5211 13.4504 81.9597 12.8683 81.4607 12.1197L81.6894 11.995ZM82.4587 7.08805C82.2924 7.30984 82.0706 7.59399 81.7934 7.94053C81.5161 8.2732 81.2389 8.60588 80.9617 8.93855C80.6845 9.27122 80.435 9.54845 80.2132 9.77023H80.3795L79.6102 10.394L77.8429 9.00092C78.0092 8.90389 78.2241 8.80687 78.4874 8.70984C78.7647 8.61281 79.0072 8.55736 79.2152 8.5435L78.3211 9.10489C78.5429 8.86924 78.7993 8.57122 79.0904 8.21083C79.3815 7.85043 79.6657 7.49003 79.9429 7.12964C80.234 6.75538 80.4627 6.4435 80.629 6.19399L82.4587 7.08805ZM80.629 6.13162L81.6063 5.1336L83.5815 6.92172C83.4706 7.04647 83.2765 7.13657 82.9993 7.19201C82.736 7.2336 82.4379 7.25439 82.1053 7.25439C81.7864 7.25439 81.4607 7.2336 81.128 7.19201L80.8993 6.13162H80.629ZM81.3567 9.18805L82.4379 8.10686L84.33 9.68706C84.2191 9.8534 83.9627 9.95043 83.5607 9.97815C83.131 11.2673 82.4241 12.4316 81.4399 13.4712C80.4558 14.497 79.1528 15.3148 77.531 15.9247L77.3647 15.6336C78.5845 14.8989 79.527 13.9633 80.1924 12.8267C80.8716 11.6762 81.329 10.4633 81.5647 9.18805H81.3567ZM81.731 6.13162V6.7138H77.6558L77.4686 6.13162H81.731ZM82.1468 9.18805V9.77023H79.4231L79.6518 9.18805H82.1468ZM78.4043 2.68013C79.236 2.52766 79.929 2.493 80.4835 2.57617C81.0518 2.64548 81.4954 2.79102 81.8142 3.01281C82.133 3.22073 82.3478 3.45637 82.4587 3.71974C82.5835 3.96924 82.6112 4.21182 82.5419 4.44746C82.4726 4.6831 82.327 4.87023 82.1053 5.00885C81.8973 5.1336 81.627 5.16132 81.2944 5.09201C81.0864 4.82865 80.8092 4.55835 80.4627 4.28112C80.1162 4.00389 79.7488 3.74053 79.3607 3.49102C78.9726 3.24152 78.6053 3.04746 78.2587 2.90885L78.4043 2.68013ZM80.9617 17.4633C81.9459 17.4217 82.736 17.491 83.332 17.6712C83.928 17.8514 84.3647 18.094 84.6419 18.3989C84.933 18.69 85.0924 18.995 85.1201 19.3138C85.1478 19.6326 85.0716 19.9098 84.8914 20.1455C84.7251 20.395 84.4825 20.5544 84.1637 20.6237C83.8587 20.7069 83.5122 20.6514 83.1241 20.4574C82.9993 20.1108 82.8053 19.7643 82.5419 19.4178C82.2924 19.0574 82.0152 18.7247 81.7102 18.4197C81.4053 18.1009 81.1072 17.8376 80.8162 17.6296L80.9617 17.4633ZM92.6884 15.4673C92.6746 15.6059 92.6122 15.7168 92.5013 15.7999C92.3904 15.8831 92.231 15.9455 92.0231 15.9871V19.1683C92.0231 19.695 91.9468 20.1455 91.7944 20.5197C91.6558 20.894 91.3577 21.1851 90.9003 21.393C90.4429 21.6148 89.736 21.7673 88.7795 21.8504C88.7518 21.5178 88.6963 21.2197 88.6132 20.9564C88.5439 20.7069 88.4191 20.5059 88.2389 20.3534C88.0587 20.1871 87.8161 20.0415 87.5112 19.9168C87.2201 19.792 86.7765 19.6881 86.1805 19.6049V19.3138C86.1805 19.3138 86.3122 19.3207 86.5756 19.3346C86.8528 19.3484 87.1716 19.3692 87.532 19.397C87.8924 19.4247 88.232 19.4455 88.5508 19.4593C88.8696 19.4732 89.0914 19.4801 89.2161 19.4801C89.3825 19.4801 89.4934 19.4524 89.5488 19.397C89.6181 19.3415 89.6528 19.2514 89.6528 19.1267V15.2178L92.6884 15.4673ZM94.7468 15.1138C94.7468 15.1138 94.8647 15.2039 95.1003 15.3841C95.336 15.5643 95.6132 15.7861 95.932 16.0494C96.2508 16.3128 96.5419 16.5623 96.8053 16.798C96.7498 17.0197 96.5627 17.1306 96.2439 17.1306H77.7805L77.6142 16.5484H93.6033L94.7468 15.1138ZM91.4617 4.71776C91.1983 5.05043 90.8657 5.43162 90.4637 5.86132C90.0617 6.27716 89.6874 6.61677 89.3409 6.88013H88.4053C88.4607 6.54746 88.5092 6.1732 88.5508 5.75736C88.5924 5.32766 88.6132 4.98112 88.6132 4.71776H91.4617ZM86.9498 12.2445C86.9498 12.3138 86.8528 12.4039 86.6587 12.5148C86.4785 12.6257 86.2429 12.7227 85.9518 12.8059C85.6607 12.889 85.3558 12.9306 85.0369 12.9306H84.7251V6.54746V5.61182L87.0746 6.54746H93.5617V7.15043H86.9498V12.2445ZM94.0815 2.84647C94.0399 2.98508 93.9498 3.09597 93.8112 3.17914C93.6864 3.24845 93.5132 3.2831 93.2914 3.2831C92.9449 3.56033 92.5152 3.86528 92.0023 4.19795C91.5033 4.51677 91.0181 4.79399 90.5468 5.02964H90.2558C90.3805 4.64152 90.4983 4.17716 90.6092 3.63657C90.734 3.08211 90.8379 2.59696 90.9211 2.18112L94.0815 2.84647ZM93.832 11.4544V12.0574H86.1181V11.4544H93.832ZM93.832 9.79102V10.394H86.1181V9.79102H93.832ZM93.832 8.16924V8.77221H86.1181V8.16924H93.832ZM92.2518 6.54746L93.2914 5.44548L95.4538 7.06726C95.3845 7.13657 95.2874 7.20587 95.1627 7.27518C95.0518 7.34449 94.9062 7.39993 94.7261 7.44152V12.1613C94.7261 12.2168 94.6221 12.2999 94.4142 12.4108C94.2062 12.5217 93.9567 12.6187 93.6657 12.7019C93.3746 12.7851 93.0973 12.8267 92.834 12.8267H92.4389V6.54746H92.2518ZM85.827 2.32667C86.631 2.29894 87.2617 2.36825 87.7191 2.53459C88.1765 2.70092 88.4954 2.91577 88.6756 3.17914C88.8696 3.42865 88.9528 3.68508 88.9251 3.94845C88.8973 4.21182 88.7864 4.44053 88.5924 4.63459C88.4122 4.82865 88.1835 4.94647 87.9062 4.98805C87.629 5.01578 87.3241 4.92568 86.9914 4.71776C86.9221 4.30191 86.7558 3.88607 86.4924 3.47023C86.2429 3.05439 85.9657 2.72172 85.6607 2.47221L85.827 2.32667ZM94.4558 3.26231C94.4558 3.26231 94.5805 3.35241 94.83 3.53261C95.0795 3.71281 95.3706 3.92766 95.7033 4.17716C96.036 4.42667 96.334 4.67617 96.5973 4.92568C96.5419 5.14746 96.3478 5.25835 96.0152 5.25835H83.4152L83.2488 4.65538H93.3122L94.4558 3.26231ZM105.205 2.34746L108.324 2.61776C108.31 2.75637 108.255 2.87419 108.158 2.97122C108.061 3.05439 107.887 3.11677 107.638 3.15835V9.8534H105.205V2.34746ZM100.132 5.69498H108.698L109.967 4.0732C109.967 4.0732 110.043 4.13558 110.195 4.26033C110.362 4.37122 110.563 4.5237 110.798 4.71776C111.048 4.91182 111.304 5.11974 111.568 5.34152C111.831 5.54944 112.074 5.75043 112.295 5.94449C112.24 6.16627 112.046 6.27716 111.713 6.27716H100.298L100.132 5.69498ZM98.2399 9.52073H113.792L115.102 7.83657C115.102 7.83657 115.179 7.90588 115.331 8.04449C115.497 8.16924 115.705 8.32865 115.955 8.52271C116.204 8.71677 116.468 8.92469 116.745 9.14647C117.022 9.36825 117.272 9.5831 117.493 9.79102C117.438 9.99894 117.244 10.1029 116.911 10.1029H98.427L98.2399 9.52073ZM113.959 2.88805L116.641 4.80092C116.558 4.89795 116.447 4.96726 116.308 5.00885C116.17 5.03657 115.976 5.00885 115.726 4.92568C114.853 5.993 113.806 7.06726 112.586 8.14845C111.367 9.22964 110.001 10.2692 108.49 11.2673C106.98 12.2653 105.344 13.1871 103.583 14.0326C101.837 14.8643 99.9795 15.5643 98.0112 16.1326L97.8657 15.8207C99.6122 15.0584 101.289 14.1712 102.897 13.1593C104.505 12.1475 106.009 11.0663 107.409 9.91578C108.809 8.75142 110.064 7.5732 111.173 6.38112C112.281 5.17518 113.21 4.01083 113.959 2.88805ZM102.814 12.6395V11.6207L105.372 12.6395H113.127V13.2425H105.226V21.0811C105.226 21.1643 105.122 21.2683 104.914 21.393C104.72 21.5178 104.464 21.6286 104.145 21.7257C103.84 21.8227 103.514 21.8712 103.168 21.8712H102.814V12.6395ZM111.734 12.6395H111.526L112.67 11.392L115.019 13.2009C114.964 13.2841 114.867 13.3673 114.728 13.4504C114.589 13.5336 114.409 13.596 114.187 13.6376V21.1435C114.174 21.1851 114.049 21.2544 113.813 21.3514C113.591 21.4623 113.321 21.5593 113.002 21.6425C112.697 21.7257 112.406 21.7673 112.129 21.7673H111.734V12.6395ZM104.207 16.0494H113.273V16.6524H104.207V16.0494ZM104.207 19.6881H113.273V20.2702H104.207V19.6881ZM122.4 4.30191V4.90489H118.99L118.803 4.30191H122.4ZM128.596 3.07518C128.596 3.07518 128.686 3.15835 128.867 3.32469C129.061 3.47716 129.282 3.67122 129.532 3.90687C129.782 4.14251 130.003 4.36429 130.197 4.57221C130.156 4.79399 129.976 4.90489 129.657 4.90489H125.519L125.353 4.30191H127.723L128.596 3.07518ZM127.64 2.493C127.626 2.61775 127.571 2.72171 127.474 2.80488C127.39 2.88805 127.238 2.9435 127.016 2.97122V5.86132C127.016 5.9029 126.926 5.96528 126.746 6.04845C126.566 6.11776 126.344 6.18706 126.081 6.25637C125.817 6.31182 125.554 6.33954 125.29 6.33954H124.895V2.2435L127.64 2.493ZM124.209 2.51379C124.195 2.62468 124.14 2.72171 124.043 2.80488C123.96 2.88805 123.807 2.9435 123.585 2.97122V5.94449C123.585 5.98607 123.495 6.04845 123.315 6.13162C123.149 6.20092 122.934 6.2633 122.671 6.31875C122.407 6.37419 122.144 6.40191 121.881 6.40191H121.506V2.26429L124.209 2.51379ZM123.835 10.498C124.528 10.6088 125.048 10.7613 125.394 10.9554C125.755 11.1494 125.99 11.3643 126.101 11.5999C126.212 11.8356 126.226 12.0643 126.143 12.2861C126.06 12.494 125.921 12.6603 125.727 12.7851C125.533 12.9098 125.297 12.9653 125.02 12.9514C124.757 12.9237 124.5 12.7989 124.251 12.5772C124.251 12.2306 124.181 11.8772 124.043 11.5168C123.918 11.1425 123.786 10.8376 123.648 10.6019L123.835 10.498ZM127.162 7.15043L127.91 6.36033L129.553 7.58706C129.511 7.64251 129.435 7.69795 129.324 7.7534C129.213 7.80885 129.082 7.85043 128.929 7.87815V10.3524C128.929 10.394 128.853 10.4564 128.7 10.5395C128.548 10.6088 128.368 10.6712 128.16 10.7267C127.952 10.7821 127.758 10.8098 127.578 10.8098H127.307V7.15043H127.162ZM124.646 6.38112L126.517 7.15043H126.247V10.4564C126.247 10.498 126.129 10.595 125.893 10.7475C125.658 10.8861 125.332 10.9554 124.916 10.9554H124.646V7.15043V6.38112ZM128.056 9.62469V10.2277H125.394V9.62469H128.056ZM128.056 7.15043V7.73261H125.394V7.15043H128.056ZM122.13 7.15043L122.879 6.36033L124.5 7.56627C124.445 7.62172 124.362 7.68409 124.251 7.7534C124.14 7.80885 124.015 7.85043 123.877 7.87815V10.4356C123.877 10.4772 123.8 10.5395 123.648 10.6227C123.495 10.692 123.315 10.7544 123.107 10.8098C122.913 10.8653 122.726 10.893 122.546 10.893H122.276V7.15043H122.13ZM119.614 6.40191L121.465 7.15043H121.194V10.6643C121.194 10.7059 121.077 10.796 120.841 10.9346C120.605 11.0732 120.286 11.1425 119.884 11.1425H119.614V7.15043V6.40191ZM123.523 11.496C123.481 11.6069 123.391 11.7039 123.253 11.7871C123.128 11.8702 122.948 11.9049 122.712 11.891C122.241 12.9029 121.693 13.8385 121.07 14.698C120.46 15.5574 119.794 16.2782 119.074 16.8603L118.782 16.6732C119.212 15.9247 119.628 15.0168 120.03 13.9494C120.432 12.8821 120.751 11.7871 120.986 10.6643L123.523 11.496ZM126.101 12.9514V19.9583H124.105V12.9514H126.101ZM122.463 21.1643C122.463 21.2475 122.317 21.3722 122.026 21.5385C121.735 21.7049 121.326 21.7881 120.799 21.7881H120.425V14.2197L121.714 12.4108L122.733 12.7851H122.463V21.1643ZM127.91 18.3574C127.91 18.3574 128.014 18.4405 128.222 18.6069C128.444 18.7732 128.7 18.9742 128.991 19.2098C129.282 19.4316 129.539 19.6534 129.761 19.8752C129.705 20.097 129.525 20.2079 129.22 20.2079H121.132V19.6257H126.891L127.91 18.3574ZM127.39 16.1534C127.39 16.1534 127.487 16.2296 127.681 16.3821C127.876 16.5346 128.097 16.7148 128.347 16.9227C128.61 17.1306 128.853 17.3385 129.075 17.5465C129.033 17.7683 128.853 17.8791 128.534 17.8791H121.09V17.2762H126.476L127.39 16.1534ZM127.39 13.8871C127.39 13.8871 127.487 13.9633 127.681 14.1158C127.876 14.2544 128.097 14.4346 128.347 14.6564C128.61 14.8643 128.846 15.0653 129.054 15.2593C129.026 15.4811 128.853 15.592 128.534 15.592H121.09V15.0098H126.476L127.39 13.8871ZM127.744 11.5999C127.744 11.5999 127.841 11.6831 128.035 11.8494C128.243 12.0019 128.485 12.189 128.763 12.4108C129.054 12.6326 129.31 12.8475 129.532 13.0554C129.477 13.2772 129.296 13.3881 128.991 13.3881H121.153V12.7851H126.787L127.744 11.5999ZM123.024 9.62469V10.2277H120.383V9.62469H123.024ZM123.024 7.15043V7.73261H120.383V7.15043H123.024ZM133.004 14.0118C132.963 15.3564 132.776 16.5346 132.443 17.5465C132.11 18.5445 131.563 19.397 130.8 20.1039C130.052 20.8108 128.998 21.3999 127.64 21.8712L127.515 21.5801C128.513 20.9564 129.248 20.2772 129.719 19.5425C130.19 18.8079 130.495 17.99 130.634 17.089C130.786 16.1742 130.863 15.1484 130.863 14.0118H133.004ZM135.707 14.0326C135.707 14.1435 135.707 14.2613 135.707 14.3861C135.707 14.5108 135.707 14.6148 135.707 14.698V19.1475C135.707 19.2584 135.721 19.3346 135.749 19.3762C135.79 19.4178 135.867 19.4385 135.978 19.4385H136.352C136.435 19.4385 136.504 19.4385 136.56 19.4385C136.615 19.4385 136.664 19.4385 136.705 19.4385C136.775 19.4247 136.83 19.4108 136.872 19.397C136.927 19.3692 136.976 19.3138 137.017 19.2306C137.1 19.092 137.204 18.8148 137.329 18.3989C137.454 17.9692 137.585 17.5118 137.724 17.0267H137.953L138.015 19.3138C138.265 19.4247 138.424 19.5494 138.493 19.6881C138.563 19.8128 138.597 19.9722 138.597 20.1663C138.597 20.5267 138.41 20.8039 138.036 20.998C137.662 21.192 137.017 21.289 136.102 21.289H135.25C134.765 21.289 134.404 21.2336 134.169 21.1227C133.947 21.0118 133.801 20.8316 133.732 20.5821C133.663 20.3326 133.628 20.0069 133.628 19.6049V14.0326H135.707ZM129.782 2.61776L132.173 3.5534H134.813L135.915 2.26429L137.994 3.92766C137.925 4.01083 137.828 4.08706 137.703 4.15637C137.579 4.22568 137.391 4.28112 137.142 4.32271V14.4692C137.142 14.5247 136.969 14.6356 136.622 14.8019C136.289 14.9544 135.846 15.0306 135.291 15.0306H134.917V4.13558H131.923V14.8227C131.923 14.9059 131.764 15.0237 131.445 15.1762C131.14 15.3286 130.71 15.4049 130.156 15.4049H129.782V3.5534V2.61776ZM136.144 13.8871V14.4692H130.696V13.8871H136.144ZM136.144 10.5395V11.1425H130.696V10.5395H136.144ZM136.144 7.25439V7.83657H130.696V7.25439H136.144ZM140.677 15.5296C140.815 15.5296 140.919 15.5158 140.988 15.4881C141.058 15.4465 141.148 15.3148 141.259 15.093C141.342 14.9405 141.418 14.795 141.487 14.6564C141.557 14.5039 141.654 14.2821 141.779 13.991C141.903 13.6999 142.083 13.2633 142.319 12.6811C142.569 12.0989 142.894 11.3019 143.296 10.29C143.698 9.27815 144.218 7.98211 144.856 6.40191L145.209 6.48508C145.084 6.97023 144.932 7.52469 144.752 8.14845C144.585 8.75835 144.419 9.38904 144.253 10.0405C144.086 10.6782 143.927 11.295 143.775 11.891C143.622 12.4732 143.483 12.993 143.359 13.4504C143.248 13.894 143.172 14.2267 143.13 14.4484C143.061 14.7811 142.998 15.1138 142.943 15.4465C142.901 15.7653 142.881 16.0633 142.881 16.3405C142.894 16.7009 142.971 17.0544 143.109 17.4009C143.248 17.7475 143.38 18.1356 143.504 18.5653C143.629 18.995 143.678 19.5217 143.65 20.1455C143.636 20.6722 143.477 21.0881 143.172 21.393C142.881 21.698 142.506 21.8504 142.049 21.8504C141.813 21.8504 141.598 21.7603 141.404 21.5801C141.21 21.4138 141.079 21.1366 141.009 20.7484C141.134 20.0138 141.203 19.3277 141.217 18.69C141.245 18.0524 141.224 17.5187 141.155 17.089C141.085 16.6455 140.975 16.3683 140.822 16.2574C140.683 16.1465 140.524 16.0702 140.344 16.0286C140.178 15.9871 139.983 15.9593 139.762 15.9455V15.5296C139.762 15.5296 139.817 15.5296 139.928 15.5296C140.053 15.5296 140.191 15.5296 140.344 15.5296C140.496 15.5296 140.607 15.5296 140.677 15.5296ZM140.905 2.51379C141.806 2.66627 142.513 2.89498 143.026 3.19993C143.553 3.49102 143.92 3.80984 144.128 4.15637C144.336 4.48904 144.426 4.80786 144.398 5.11281C144.371 5.41776 144.253 5.67419 144.045 5.88211C143.851 6.07617 143.601 6.18706 143.296 6.21479C143.005 6.22865 142.686 6.11083 142.34 5.86132C142.284 5.48706 142.167 5.10588 141.986 4.71776C141.806 4.32964 141.605 3.95538 141.383 3.59498C141.176 3.23459 140.961 2.91578 140.739 2.63855L140.905 2.51379ZM139.679 7.27518C140.524 7.42766 141.189 7.64251 141.675 7.91974C142.16 8.19696 142.492 8.50191 142.673 8.83459C142.867 9.1534 142.943 9.46528 142.901 9.77023C142.874 10.0613 142.763 10.3039 142.569 10.498C142.375 10.6782 142.132 10.7752 141.841 10.789C141.55 10.8029 141.245 10.6851 140.926 10.4356C140.871 9.89498 140.697 9.35439 140.406 8.8138C140.129 8.25934 139.824 7.79498 139.491 7.42073L139.679 7.27518ZM152.736 4.30191L155.273 4.55142C155.259 4.66231 155.21 4.75934 155.127 4.84251C155.058 4.92568 154.919 4.98112 154.711 5.00885V16.7772C154.711 16.8465 154.621 16.9296 154.441 17.0267C154.275 17.1237 154.074 17.2138 153.838 17.297C153.602 17.3663 153.367 17.4009 153.131 17.4009H152.736V4.30191ZM156.125 2.59696L159.057 2.88805C159.043 3.02667 158.974 3.15142 158.849 3.26231C158.738 3.35934 158.551 3.42865 158.287 3.47023V19.1059C158.287 19.6187 158.225 20.0623 158.1 20.4366C157.976 20.8247 157.705 21.1227 157.289 21.3306C156.887 21.5524 156.264 21.7049 155.418 21.7881C155.39 21.4415 155.342 21.1366 155.273 20.8732C155.217 20.6098 155.106 20.4019 154.94 20.2494C154.787 20.0692 154.58 19.9237 154.316 19.8128C154.067 19.6881 153.699 19.5841 153.214 19.5009V19.189C153.214 19.189 153.318 19.196 153.526 19.2098C153.748 19.2237 154.004 19.2445 154.295 19.2722C154.586 19.2861 154.857 19.2999 155.106 19.3138C155.37 19.3277 155.557 19.3346 155.668 19.3346C155.848 19.3346 155.966 19.3069 156.021 19.2514C156.09 19.196 156.125 19.0989 156.125 18.9603V2.59696ZM146.415 7.69102H150.345V8.2732H146.415V7.69102ZM146.415 11.4336H150.345V12.0366H146.415V11.4336ZM146.353 15.3009H150.22V15.9039H146.353V15.3009ZM146.436 16.5277L149.056 17.6088C149 17.7336 148.903 17.8306 148.765 17.8999C148.64 17.9554 148.467 17.9762 148.245 17.9623C147.677 18.8633 147.011 19.6326 146.249 20.2702C145.5 20.9079 144.71 21.4138 143.879 21.7881L143.65 21.5593C144.19 20.9772 144.71 20.2494 145.209 19.3762C145.722 18.5029 146.131 17.5534 146.436 16.5277ZM148.91 16.694C149.797 16.9989 150.483 17.3524 150.969 17.7544C151.468 18.1564 151.814 18.5653 152.008 18.9811C152.216 19.3831 152.299 19.7574 152.258 20.1039C152.23 20.4504 152.112 20.7277 151.904 20.9356C151.71 21.1574 151.468 21.2683 151.177 21.2683C150.885 21.2683 150.581 21.1366 150.262 20.8732C150.234 20.4019 150.144 19.9237 149.991 19.4385C149.839 18.9534 149.645 18.4821 149.409 18.0247C149.187 17.5673 148.952 17.1583 148.702 16.798L148.91 16.694ZM145.417 3.92766V3.01281L147.517 3.92766H150.158V4.50984H147.434V16.195C147.434 16.2643 147.351 16.3613 147.184 16.4861C147.032 16.597 146.831 16.694 146.581 16.7772C146.332 16.8603 146.055 16.9019 145.75 16.9019H145.417V3.92766ZM149.409 3.92766H149.222L150.22 2.84647L152.216 4.40588C152.161 4.48904 152.071 4.56528 151.946 4.63459C151.835 4.69003 151.689 4.73855 151.509 4.78013V16.0286C151.509 16.0841 151.412 16.1603 151.218 16.2574C151.024 16.3544 150.788 16.4445 150.511 16.5277C150.248 16.6108 149.998 16.6524 149.763 16.6524H149.409V3.92766ZM177.728 5.86132C177.728 5.86132 177.804 5.9237 177.957 6.04845C178.109 6.1732 178.296 6.33954 178.518 6.54746C178.754 6.74152 178.996 6.94944 179.246 7.17122C179.509 7.393 179.745 7.60092 179.953 7.79498C179.911 8.01677 179.724 8.12766 179.391 8.12766H173.674V7.54548H176.481L177.728 5.86132ZM169.12 11.3296L171.698 12.3069H175.94L177.104 10.9762L179.287 12.6811C179.218 12.7782 179.121 12.8613 178.996 12.9306C178.885 12.9861 178.712 13.0415 178.477 13.097V21.0811C178.477 21.1366 178.296 21.2475 177.936 21.4138C177.576 21.5801 177.083 21.6633 176.46 21.6633H176.023V12.9098H171.449V21.2683C171.449 21.3514 171.276 21.4692 170.929 21.6217C170.596 21.7742 170.132 21.8504 169.536 21.8504H169.12V12.3069V11.3296ZM175.711 2.63855C175.683 2.77716 175.614 2.90191 175.503 3.01281C175.406 3.10984 175.219 3.17914 174.942 3.22073V12.598H172.572V2.36825L175.711 2.63855ZM176.647 19.5009V20.1039H170.638V19.5009H176.647ZM162.799 2.38904C163.714 2.68013 164.428 3.02667 164.941 3.42865C165.454 3.81677 165.8 4.21875 165.98 4.63459C166.161 5.03657 166.216 5.41776 166.147 5.77815C166.091 6.12469 165.946 6.40191 165.71 6.60984C165.475 6.81776 165.183 6.91479 164.837 6.90092C164.504 6.88706 164.165 6.72073 163.818 6.40191C163.79 5.95835 163.714 5.50786 163.589 5.05043C163.465 4.57914 163.312 4.12172 163.132 3.67815C162.966 3.23459 162.785 2.83261 162.591 2.47221L162.799 2.38904ZM169.141 9.35439C169.099 9.493 169.016 9.60389 168.891 9.68706C168.767 9.77023 168.58 9.81182 168.33 9.81182C168.108 10.5742 167.817 11.4544 167.457 12.4524C167.11 13.4366 166.729 14.4484 166.313 15.4881C165.897 16.5138 165.475 17.4772 165.045 18.3782H164.733C164.899 17.4079 165.059 16.3405 165.211 15.1762C165.378 14.0118 165.53 12.8544 165.669 11.7039C165.807 10.5395 165.918 9.48607 166.001 8.5435L169.141 9.35439ZM161.573 8.83459C162.446 9.66627 163.097 10.4702 163.527 11.2465C163.971 12.0227 164.241 12.7366 164.338 13.3881C164.449 14.0395 164.442 14.6009 164.317 15.0722C164.192 15.5435 163.998 15.9039 163.735 16.1534C163.485 16.389 163.215 16.493 162.924 16.4653C162.647 16.4237 162.397 16.2088 162.176 15.8207C162.189 15.4049 162.189 14.9197 162.176 14.3653C162.176 13.797 162.148 13.2009 162.092 12.5772C162.037 11.9395 161.947 11.3158 161.822 10.7059C161.697 10.0821 161.524 9.49993 161.302 8.95934L161.573 8.83459ZM160.346 18.2118C160.831 18.1286 161.517 17.997 162.404 17.8168C163.291 17.6366 164.289 17.4286 165.398 17.193C166.521 16.9435 167.672 16.6871 168.85 16.4237L168.891 16.6524C168.171 17.096 167.256 17.6227 166.147 18.2326C165.038 18.8425 163.686 19.5425 162.092 20.3326C161.981 20.6376 161.801 20.8178 161.552 20.8732L160.346 18.2118ZM167.748 5.46627C167.748 5.46627 167.817 5.53558 167.956 5.67419C168.108 5.81281 168.295 5.98607 168.517 6.19399C168.753 6.40191 168.988 6.63063 169.224 6.88013C169.46 7.11578 169.675 7.34449 169.869 7.56627C169.813 7.78805 169.626 7.89894 169.307 7.89894H160.554L160.387 7.29597H166.542L167.748 5.46627Z" fill="black"/>
</g>
<defs>
<clipPath id="clip0_5342_152495">
<rect width="24" height="24" fill="white"/>
</clipPath>
<clipPath id="clip1_5342_152495">
<rect width="123.762" height="20" fill="white" transform="translate(56.2422 2)"/>
</clipPath>
</defs>
</svg>
